:SAMPLES-PER-SECOND 30
:FULLY-SPECIFIED
:DEGREES
328
root  34.66248099 36.50431595 -14.93516156 8.482195854 -5.882232666 3.558776379
lowerback  -7.986450195 -1.206069946 -1.154440165
upperback  -4.039840221 -1.09296 -2.861690044
thorax  0.2691029906 -0.3855479956 -2.389319897
lowerneck  -7.130670071 -13.02089977 -11.52229977
upperneck  15.64789963 -17.82700157 10.99709988
head  8.045289993 -8.219650269 3.569583654
lclavicle  0 -4.497500157e-015 -2.743230041e-014
lhumerus  -48.03739929 27.41209984 65.98629761
lradius  -2.057401616e-006 -6.507048965e-006 30.62509918
lwrist  4.824992743e-007 -3.790274832e-007 -26.70569992
lhand  -4.406218521e-031 -36.7364006 -10.62100029
lfingers  90 7.125020027 -90
lthumb  94.72809026 -25.46358741 100.8891637
rclavicle  0 -4.497500157e-015 -2.743230041e-014
rhumerus  -68.71170044 -43.90739822 -34.44430542
rradius  -5.16745672e-007 2.214343908e-008 33.5503006
rwrist  -0.0001011603963 0.007538665552 -145.598999
rhand  -1.773848328e-031 5.54008007 -7.216340065
rfingers  -90 -7.125020027 -90
rthumb  -84.63885889 -8.87831571 -58.69849448
rfemur  -12.81837368 16.57338333 13.23864746
rtibia  -1.461531639 -1.110608459 21.400774
rfoot  0.04848638177 -22.25582123 -36.00206757
rtoes  4.011740762 19.60967887 -101.803272
lfemur  -8.381322861 -16.56680107 -19.9792614
ltibia  2.291500807 -1.065944076 15.19373417
lfoot  0.9468170404 -23.41235733 37.70220947
ltoes  -8.524965535 -18.15980453 -115.685165
329
root  34.66230978 36.50822076 -14.93395107 8.464978218 -5.779557705 3.553225517
lowerback  -7.965539932 -1.216019988 -1.19762969
upperback  -4.05009985 -1.103379965 -2.849149942
thorax  0.2478380054 -0.3896810114 -2.352420092
lowerneck  -7.116020203 -13.04370022 -11.51150036
upperneck  15.56060028 -17.85639954 10.9939003
head  8.015930176 -8.237719536 3.569950581
lclavicle  0 -4.497500157e-015 -2.743230041e-014
lhumerus  -48.06359863 27.32859993 66.04319763
lradius  -2.057401616e-006 -6.507048965e-006 30.66930008
lwrist  4.824992743e-007 -3.790274832e-007 -26.58880043
lhand  -0 -36.7344017 -10.64540005
lfingers  90 7.125020027 -90
lthumb  94.73226356 -25.48760781 100.8892315
rclavicle  0 -4.497500157e-015 -2.743230041e-014
rhumerus  -68.44860077 -43.71350098 -35.17770386
rradius  -5.16745672e-007 2.214343908e-008 33.64179993
rwrist  -0.0001011603963 0.007538665552 -145.0099945
rhand  -1.773190773e-031 5.316530228 -7.221600056
rfingers  -90 -7.125020027 -90
rthumb  -84.69577927 -8.859294504 -58.91700891
rfemur  -12.77072525 16.52237892 13.26690674
rtibia  -1.45935142 -1.078899622 21.38490486
rfoot  0.05401042849 -22.19780922 -36.03484344
rtoes  4.01469048 19.60909799 -101.8120613
lfemur  -8.32872963 -16.58415413 -19.98471642
ltibia  2.322760582 -1.02844286 15.14284801
lfoot  0.9559745193 -23.46901131 37.69081116
ltoes  -8.503387353 -18.16965009 -115.6159487
330
root  34.66051958 36.51203246 -14.93266699 8.471325874 -5.717890263 3.568682432
lowerback  -7.94185257 -1.211396217 -1.187621593
upperback  -4.046309948 -1.100124955 -2.840980053
thorax  0.238943994 -0.3895719647 -2.348449945
lowerneck  -7.083630085 -13.06690025 -11.51099968
upperneck  15.45269966 -17.8878994 11.0067997
head  7.97947979 -8.257459641 3.570260048
lclavicle  0 -4.497500157e-015 -2.743230041e-014
lhumerus  -48.07749939 27.20919991 66.12039948
lradius  -2.057401616e-006 -6.507048965e-006 30.71310043
lwrist  4.824992743e-007 -3.790274832e-007 -26.46069908
lhand  -0 -36.74140167 -10.61260033
lfingers  90 7.125020027 -90
lthumb  94.72866131 -25.45513616 100.893747
rclavicle  0 -4.497500157e-015 -2.743230041e-014
rhumerus  -68.40899658 -43.66120148 -35.56539917
rradius  -5.16745672e-007 2.214343908e-008 33.6719017
rwrist  -0.0001011603963 0.007538665552 -143.4920044
rhand  -1.773972787e-031 5.581369877 -7.289599895
rfingers  -90 -7.125020027 -90
rthumb  -84.66738218 -8.818441597 -58.66421958
rfemur  -12.78778744 16.53418159 13.26827431
rtibia  -1.479494214 -1.057518005 21.41897964
rfoot  0.03511761129 -22.13986397 -36.09246063
rtoes  4.023006265 19.60745799 -101.836841
lfemur  -8.315052986 -16.64441872 -20.01392365
ltibia  2.352228403 -1.040718675 15.10941124
lfoot  0.9500675797 -23.4279232 37.67519379
ltoes  -8.521949191 -18.16118268 -115.6754873
331
root  34.65865728 36.50908883 -14.93143998 8.500937462 -5.666272163 3.582892179
lowerback  -7.910260677 -1.204319954 -1.172320008
upperback  -4.031559944 -1.094820023 -2.834980011
thorax  0.236570999 -0.3880047202 -2.350419998
lowerneck  -7.073200226 -13.06869984 -11.48740005
upperneck  15.37220001 -17.89080238 11.01309967
head  7.949719906 -8.260749817 3.570159912
lclavicle  0 -4.497500157e-015 -2.743230041e-014
lhumerus  -48.10380173 27.17379951 66.14610291
lradius  -2.057401616e-006 -6.507048965e-006 30.70179749
lwrist  4.824992743e-007 -3.790274832e-007 -26.42950058
lhand  -4.409350951e-031 -36.79090118 -10.59700012
lfingers  90 7.125020027 -90
lthumb  94.74855233 -25.43812581 100.9453354
rclavicle  0 -4.497500157e-015 -2.743230041e-014
rhumerus  -68.2220993 -43.52759933 -36.08620071
rradius  -5.16745672e-007 2.214343908e-008 33.59780121
rwrist  -0.0001011603963 0.007538665552 -142.9400024
rhand  -1.773667807e-031 5.479629993 -7.469979763
rfingers  -90 -7.125020027 -90
rthumb  -84.78660565 -8.657537158 -58.77780028
rfemur  -12.81242466 16.46531677 13.26910114
rtibia  -1.489594817 -1.102438569 21.42543602
rfoot  0.01021567732 -22.21848297 -36.11220932
rtoes  4.019132651 19.60822237 -101.825298
lfemur  -8.336626053 -16.57688332 -20.01000595
ltibia  2.38351655 -0.9767296314 15.07304573
lfoot  0.9830816388 -23.54304504 37.66356659
ltoes  -8.56908534 -18.13957707 -115.8268012
332
root  34.65857919 36.50542432 -14.93060495 8.500306129 -5.638727188 3.584697008
lowerback  -7.89634037 -1.204460144 -1.167510152
upperback  -4.025949955 -1.097040057 -2.826400042
thorax  0.2347030044 -0.3889560103 -2.344199896
lowerneck  -7.081210136 -13.06403732 -11.4041996
upperneck  15.28909969 -17.8743 10.92300034
head  7.904685497 -8.261749268 3.532593489
lclavicle  0 -4.497500157e-015 -2.743230041e-014
lhumerus  -48.15280151 27.1821003 66.12229919
lradius  -2.057401616e-006 -6.507048965e-006 30.66769981
lwrist  4.824992743e-007 -3.790274832e-007 -26.46969986
lhand  -4.406155244e-031 -36.73529816 -10.62880039
lfingers  90 7.125020027 -90
lthumb  94.72919349 -25.47123695 100.8886753
rclavicle  0 -4.497500157e-015 -2.743230041e-014
rhumerus  -67.86620331 -43.33940125 -36.7947998
rradius  -5.16745672e-007 2.214343908e-008 33.4681015
rwrist  -0.0001011603963 0.007538665552 -142.9949951
rhand  -1.773999677e-031 5.590250015 -7.348499775
rfingers  -90 -7.125020027 -90
rthumb  -84.69622623 -8.768715571 -58.66026416
rfemur  -12.80248833 16.46016884 13.26962185
rtibia  -1.493744254 -1.103595614 21.4175396
rfoot  0.01236324105 -22.21256065 -36.1262207
rtoes  4.007831029 19.61044811 -101.7916226
lfemur  -8.38528347 -16.56352806 -19.99308968
ltibia  2.356096268 -0.9893048406 15.14032269
lfoot  0.9768600464 -23.55243683 37.59740829
ltoes  -8.56872881 -18.13974105 -115.8256561
333
root  34.65930308 36.50484461 -14.93023399 8.501186371 -5.593766212 3.583350658
lowerback  -7.866209984 -1.214329958 -1.166989923
upperback  -4.035870075 -1.111670017 -2.814879894
thorax  0.2076029927 -0.3962700069 -2.33310008
lowerneck  -7.062300205 -13.05840015 -11.3817997
upperneck  15.23260021 -17.86200142 10.88459969
head  7.875309944 -8.261928558 3.520879984
lclavicle  0 -4.497500157e-015 -2.743230041e-014
lhumerus  -48.23410034 27.1692009 66.10579681
lradius  -2.057401616e-006 -6.507048965e-006 30.6697979
lwrist  4.824992743e-007 -3.790274832e-007 -26.42770004
lhand  -4.40590283e-031 -36.73089981 -10.68789959
lfingers  90 7.125020027 -90
lthumb  94.73950072 -25.52942615 100.8892902
rclavicle  0 -4.497500157e-015 -2.743230041e-014
rhumerus  -67.59780121 -43.15620041 -37.37210464
rradius  -5.16745672e-007 2.214343908e-008 33.38140106
rwrist  -0.0001011603963 0.007538665552 -142.8739929
rhand  -1.774297528e-031 5.687670231 -7.568950176
rfingers  -90 -7.125020027 -90
rthumb  -84.7888736 -8.587147255 -58.58279321
rfemur  -12.80604267 16.45504951 13.26962852
rtibia  -1.501466274 -1.078263402 21.43397522
rfoot  -0.002146516694 -22.16510773 -36.16139984
rtoes  4.028300588 19.60641202 -101.8526183
lfemur  -8.391890526 -16.56656837 -19.98346329
ltibia  2.358148813 -0.9646238089 15.13916016
lfoot  0.9788475037 -23.60169029 37.58017731
ltoes  -8.519483323 -18.16230886 -115.6675763
334
root  34.65815567 36.50526212 -14.93054037 8.497468948 -5.520805359 3.596883297
lowerback  -7.836699963 -1.234910011 -1.152189851
upperback  -4.055550098 -1.141229987 -2.79640007
thorax  0.1701319963 -0.4109570086 -2.323930025
lowerneck  -7.007520199 -13.05630016 -11.38339996
upperneck  15.17510033 -17.85650063 10.86830044
head  7.844580173 -8.263250351 3.520940065
lclavicle  0 -4.497500157e-015 -2.743230041e-014
lhumerus  -48.37340164 27.18659973 66.03790283
lradius  -2.057401616e-006 -6.507048965e-006 30.68600082
lwrist  4.824992743e-007 -3.790274832e-007 -26.44610023
lhand  -4.405151386e-031 -36.71780014 -10.72480011
lfingers  90 7.125020027 -90
lthumb  94.74111642 -25.56621247 100.8786579
rclavicle  0 -4.497500157e-015 -2.743230041e-014
rhumerus  -67.20999908 -42.89799881 -38.10570526
rradius  -5.16745672e-007 2.214343908e-008 33.29719925
rwrist  -0.0001011603963 0.007538665552 -142.4900055
rhand  -1.775042532e-031 5.924220085 -7.610159874
rfingers  -90 -7.125020027 -90
rthumb  -84.75395879 -8.568310363 -58.35563334
rfemur  -12.79258728 16.38730431 13.26853752
rtibia  -1.507246733 -1.103642941 21.44693375
rfoot  -0.03822595999 -22.22891426 -36.21192169
rtoes  4.045141677 19.60307522 -101.9028109
lfemur  -8.33303833 -16.60206604 -20.01708412
ltibia  2.407042742 -0.9426683784 15.04997826
lfoot  0.9808820486 -23.60912132 37.5870285
ltoes  -8.50423118 -18.16926565 -115.6186548
